<svg xmlns="http://www.w3.org/2000/svg" version="1.1" xmlns:xlink="http://www.w3.org/1999/xlink" xmlns:svgjs="http://svgjs.dev/svgjs" width="200" height="200"><svg width="200" height="200" viewBox="0 0 200 200" fill="none" xmlns="http://www.w3.org/2000/svg">
<path d="M48.9844 71.4419C57.5898 71.4419 65.2574 73.3182 71.9873 77.0708C78.8275 80.8233 84.1782 86.121 88.0396 92.964C91.901 99.8069 93.8317 107.698 93.8317 116.638C93.8317 125.578 91.901 133.525 88.0396 140.478C84.1782 147.321 78.8275 152.619 71.9873 156.371C65.2574 160.124 57.5898 162 48.9844 162C42.9166 162 37.3451 160.951 32.2702 158.854C27.3055 156.757 23.1132 153.612 19.6931 149.418V160.841H0V38H20.686V83.1963C24.2164 79.3333 28.3536 76.4085 33.0976 74.4219C37.9519 72.4352 43.2475 71.4419 48.9844 71.4419ZM46.6676 144.286C54.2801 144.286 60.5134 141.747 65.3678 136.67C70.3324 131.593 72.8147 124.916 72.8147 116.638C72.8147 108.36 70.3324 101.683 65.3678 96.6061C60.5134 91.5292 54.2801 88.9907 46.6676 88.9907C41.703 88.9907 37.2348 90.1495 33.2631 92.4673C29.2914 94.6747 26.1471 97.8754 23.8303 102.069C21.5134 106.263 20.355 111.12 20.355 116.638C20.355 122.157 21.5134 127.013 23.8303 131.207C26.1471 135.401 29.2914 138.657 33.2631 140.975C37.2348 143.182 41.703 144.286 46.6676 144.286Z" fill="#E9580D"></path>
<path d="M200 38V160.841H180.141V149.418C176.721 153.612 172.474 156.757 167.399 158.854C162.434 160.951 156.918 162 150.85 162C142.355 162 134.687 160.124 127.847 156.371C121.117 152.619 115.822 147.321 111.96 140.478C108.099 133.525 106.168 125.578 106.168 116.638C106.168 107.698 108.099 99.8069 111.96 92.964C115.822 86.121 121.117 80.8233 127.847 77.0708C134.687 73.3182 142.355 71.4419 150.85 71.4419C156.697 71.4419 162.048 72.4352 166.902 74.4219C171.757 76.4085 175.894 79.3885 179.314 83.3618V38H200ZM153.332 144.286C158.297 144.286 162.765 143.182 166.737 140.975C170.709 138.657 173.853 135.401 176.17 131.207C178.487 127.013 179.645 122.157 179.645 116.638C179.645 111.12 178.487 106.263 176.17 102.069C173.853 97.8754 170.709 94.6747 166.737 92.4673C162.765 90.1495 158.297 88.9907 153.332 88.9907C148.368 88.9907 143.9 90.1495 139.928 92.4673C135.956 94.6747 132.812 97.8754 130.495 102.069C128.178 106.263 127.02 111.12 127.02 116.638C127.02 122.157 128.178 127.013 130.495 131.207C132.812 135.401 135.956 138.657 139.928 140.975C143.9 143.182 148.368 144.286 153.332 144.286Z" fill="#E9580D"></path>
</svg><style>@media (prefers-color-scheme: light) { :root { filter: none; } }
@media (prefers-color-scheme: dark) { :root { filter: none; } }
</style></svg>